<?xml version="1.0" encoding="UTF-8" standalone="no"?>
<!DOCTYPE svg PUBLIC "-//W3C//DTD SVG 1.1//EN" "http://www.w3.org/Graphics/SVG/1.1/DTD/svg11.dtd">
<svg width="100%" height="100%" viewBox="0 0 179 41" version="1.1" xmlns="http://www.w3.org/2000/svg" xmlns:xlink="http://www.w3.org/1999/xlink" xml:space="preserve" xmlns:serif="http://www.serif.com/" style="fill-rule:evenodd;clip-rule:evenodd;stroke-linejoin:round;stroke-miterlimit:2;">
    <g>
        <clipPath id="_clip1">
            <rect x="0" y="0" width="40" height="41"/>
        </clipPath>
        <g clip-path="url(#_clip1)">
            <path d="M13.715,0.516C11.458,0.516 9.295,1.412 7.699,3.008L0,10.707L0,14.231C0,16.721 1.07,18.961 2.774,20.516C1.005,22.126 -0.003,24.41 0,26.802L0,30.326L7.699,38.024C9.294,39.619 11.459,40.516 13.715,40.516C16.106,40.516 18.389,39.508 20,37.742C21.611,39.508 23.895,40.516 26.285,40.516C28.541,40.516 30.706,39.619 32.301,38.024L40,30.326L40,26.802C40,24.312 38.93,22.072 37.226,20.516C38.994,18.907 40.003,16.622 40,14.231L40,10.707L32.301,3.007C30.706,1.413 28.541,0.516 26.286,0.516C23.895,0.516 21.611,1.524 20,3.29C18.391,1.522 16.106,0.513 13.715,0.516ZM25.759,20.516C25.663,20.428 25.569,20.338 25.477,20.246L20,14.77L14.523,20.247C14.431,20.339 14.337,20.429 14.241,20.517C14.337,20.604 14.431,20.694 14.523,20.786L20,26.262L25.477,20.786C25.569,20.693 25.663,20.604 25.759,20.516ZM22.222,30.326C22.222,30.326 22.222,32.009 22.222,32.009C22.222,34.238 24.056,36.072 26.285,36.072C27.362,36.072 28.396,35.644 29.158,34.882L35.556,28.485C35.556,28.485 35.556,26.801 35.556,26.8C35.556,24.571 33.722,22.737 31.493,22.737C30.415,22.737 29.381,23.166 28.619,23.928L22.222,30.326ZM17.778,30.326L11.381,23.928C10.619,23.166 9.585,22.737 8.507,22.737C6.278,22.737 4.444,24.571 4.444,26.8C4.444,26.8 4.444,28.485 4.444,28.485L10.841,34.882C11.603,35.644 12.637,36.073 13.715,36.073C15.944,36.073 17.778,34.239 17.778,32.01C17.778,32.01 17.778,30.326 17.778,30.326ZM17.778,9.023C17.778,9.023 17.778,10.707 17.778,10.707L11.381,17.104C10.619,17.866 9.585,18.295 8.507,18.295C6.278,18.295 4.444,16.461 4.444,14.232C4.444,14.232 4.444,12.548 4.444,12.548L10.841,6.151C11.603,5.389 12.637,4.96 13.715,4.96C15.944,4.96 17.778,6.794 17.778,9.023ZM28.619,17.104L22.222,10.707C22.222,10.707 22.222,9.024 22.222,9.024C22.222,6.795 24.056,4.961 26.285,4.961C27.362,4.961 28.396,5.389 29.158,6.151L35.556,12.548C35.556,12.548 35.556,14.232 35.556,14.232C35.556,16.461 33.722,18.295 31.493,18.295C30.415,18.295 29.381,17.866 28.619,17.104Z" style="fill:rgb(199,35,26);"/>
        </g>
    </g>
    <path d="M54.318,29L54.318,12.2L65.802,12.2L65.802,15.296L57.87,15.296L57.87,18.896L64.59,18.896L64.59,21.764L57.87,21.764L57.87,25.868L65.898,25.868L65.898,29L54.318,29ZM67.136,29.024L71.504,22.988L67.364,16.88L71.792,16.88L73.94,20.564L76.028,16.88L80.348,16.88L76.328,22.916L80.66,29L76.172,29L73.82,25.304L71.432,28.964L67.136,29.024ZM87.429,29.36C86.133,29.36 85.109,28.996 84.357,28.268C83.613,27.532 83.241,26.424 83.241,24.944L83.241,13.388L86.745,13.388L86.745,16.88L89.757,16.88L89.757,19.688L86.745,19.688L86.745,24.308C86.745,25.02 86.893,25.52 87.189,25.808C87.485,26.096 87.881,26.24 88.377,26.24C88.633,26.24 88.881,26.212 89.121,26.156C89.369,26.092 89.597,26.004 89.805,25.892L90.297,28.652C89.937,28.852 89.505,29.02 89.001,29.156C88.489,29.294 87.96,29.363 87.429,29.36ZM80.781,19.688L80.781,16.88L83.589,16.88L83.589,19.688L80.78,19.688L80.781,19.688ZM97.907,29.36C96.587,29.36 95.427,29.092 94.427,28.556C93.451,28.043 92.64,27.265 92.087,26.312C91.527,25.352 91.247,24.228 91.247,22.94C91.247,22.004 91.407,21.144 91.727,20.36C92.04,19.598 92.506,18.908 93.095,18.332C93.691,17.754 94.397,17.301 95.171,17C95.971,16.68 96.847,16.52 97.799,16.52C98.847,16.52 99.775,16.704 100.583,17.072C101.372,17.42 102.068,17.95 102.611,18.62C103.147,19.276 103.519,20.048 103.727,20.936C103.943,21.824 103.963,22.788 103.787,23.828L94.499,23.828C94.499,24.388 94.643,24.876 94.931,25.292C95.227,25.708 95.639,26.036 96.167,26.276C96.703,26.508 97.327,26.624 98.039,26.624C98.743,26.624 99.415,26.528 100.055,26.336C100.701,26.141 101.313,25.845 101.867,25.46L103.031,27.86C102.647,28.156 102.167,28.42 101.591,28.652C101.015,28.876 100.403,29.048 99.755,29.168C99.147,29.293 98.528,29.357 97.907,29.36ZM94.703,21.416L100.427,21.416C100.403,20.704 100.151,20.14 99.671,19.724C99.199,19.308 98.547,19.1 97.715,19.1C96.883,19.1 96.191,19.308 95.639,19.724C95.095,20.14 94.783,20.704 94.703,21.416ZM105.83,29L105.83,16.88L109.334,16.88L109.334,18.248C109.798,17.64 110.346,17.2 110.978,16.928C111.611,16.657 112.293,16.519 112.982,16.52C114.11,16.52 115.038,16.744 115.766,17.192C116.502,17.632 117.046,18.204 117.398,18.908C117.758,19.612 117.938,20.352 117.938,21.128L117.938,29L114.434,29L114.434,22.22C114.434,21.452 114.218,20.84 113.786,20.384C113.362,19.928 112.746,19.7 111.938,19.7C111.426,19.7 110.974,19.816 110.582,20.048C110.19,20.272 109.882,20.588 109.658,20.996C109.442,21.404 109.334,21.876 109.334,22.412L109.334,29L105.83,29ZM125.12,29.348C124.04,29.348 123.044,29.208 122.132,28.928C121.22,28.64 120.44,28.248 119.792,27.752L120.932,25.304C121.566,25.737 122.256,26.08 122.984,26.324C123.72,26.564 124.428,26.684 125.108,26.684C125.78,26.684 126.296,26.584 126.656,26.384C127.024,26.176 127.208,25.88 127.208,25.496C127.208,25.152 127.044,24.9 126.716,24.74C126.396,24.572 125.772,24.392 124.844,24.2C123.244,23.912 122.076,23.46 121.34,22.844C120.604,22.22 120.236,21.364 120.236,20.276C120.236,19.508 120.448,18.832 120.872,18.248C121.304,17.664 121.896,17.212 122.648,16.892C123.4,16.564 124.264,16.4 125.24,16.4C126.2,16.4 127.104,16.532 127.952,16.796C128.808,17.052 129.54,17.412 130.148,17.876L129.044,20.336C128.705,20.068 128.334,19.842 127.94,19.664C127.525,19.47 127.091,19.321 126.644,19.22C126.213,19.11 125.769,19.054 125.324,19.052C124.74,19.052 124.268,19.152 123.908,19.352C123.548,19.544 123.368,19.816 123.368,20.168C123.368,20.52 123.532,20.78 123.86,20.948C124.188,21.116 124.8,21.3 125.696,21.5C127.368,21.852 128.556,22.32 129.26,22.904C129.972,23.48 130.328,24.292 130.328,25.34C130.328,26.148 130.108,26.852 129.668,27.452C129.236,28.052 128.628,28.52 127.844,28.856C127.068,29.184 126.16,29.348 125.12,29.348ZM132.533,29L132.533,16.88L136.037,16.88L136.037,29L132.533,29ZM134.285,14.96C133.732,14.971 133.194,14.779 132.773,14.42C132.349,14.052 132.137,13.564 132.137,12.956C132.137,12.34 132.349,11.852 132.773,11.492C133.191,11.126 133.73,10.929 134.285,10.94C134.84,10.929 135.379,11.126 135.797,11.492C136.221,11.852 136.433,12.34 136.433,12.956C136.433,13.564 136.221,14.052 135.797,14.42C135.376,14.779 134.838,14.971 134.285,14.96ZM144.647,29.36C143.343,29.36 142.187,29.068 141.179,28.484C140.199,27.927 139.38,27.125 138.803,26.156C138.235,25.18 137.941,24.069 137.951,22.94C137.951,22.084 138.115,21.272 138.443,20.504C138.767,19.735 139.24,19.037 139.835,18.452C140.435,17.852 141.143,17.38 141.959,17.036C142.775,16.692 143.671,16.52 144.647,16.52C145.951,16.52 147.103,16.812 148.103,17.396C149.084,17.953 149.9,18.761 150.467,19.736C151.043,20.704 151.331,21.772 151.331,22.94C151.331,23.788 151.167,24.6 150.839,25.376C150.514,26.148 150.041,26.849 149.447,27.44C148.841,28.041 148.124,28.518 147.335,28.844C146.519,29.188 145.623,29.36 144.647,29.36ZM144.647,26.324C145.263,26.324 145.815,26.188 146.303,25.916C146.791,25.636 147.175,25.244 147.455,24.74C147.735,24.228 147.875,23.628 147.875,22.94C147.875,22.244 147.735,21.644 147.455,21.14C147.196,20.65 146.8,20.245 146.315,19.976C145.827,19.696 145.271,19.556 144.647,19.556C144.023,19.556 143.463,19.696 142.967,19.976C142.479,20.248 142.095,20.636 141.815,21.14C141.543,21.644 141.407,22.244 141.407,22.94C141.407,23.636 141.547,24.236 141.827,24.74C142.107,25.244 142.491,25.636 142.979,25.916C143.467,26.188 144.023,26.324 144.647,26.324ZM153.235,29L153.235,16.88L156.739,16.88L156.739,18.248C157.203,17.64 157.751,17.2 158.383,16.928C159.016,16.657 159.698,16.519 160.387,16.52C161.515,16.52 162.443,16.744 163.171,17.192C163.907,17.632 164.451,18.204 164.803,18.908C165.163,19.612 165.343,20.352 165.343,21.128L165.343,29L161.839,29L161.839,22.22C161.839,21.452 161.623,20.84 161.191,20.384C160.767,19.928 160.151,19.7 159.343,19.7C158.831,19.7 158.379,19.816 157.987,20.048C157.595,20.272 157.287,20.588 157.063,20.996C156.847,21.404 156.739,21.876 156.739,22.412L156.739,29L153.235,29ZM172.526,29.348C171.446,29.348 170.45,29.208 169.538,28.928C168.626,28.64 167.846,28.248 167.198,27.752L168.338,25.304C168.972,25.737 169.662,26.08 170.39,26.324C171.126,26.564 171.834,26.684 172.514,26.684C173.186,26.684 173.702,26.584 174.062,26.384C174.43,26.176 174.614,25.88 174.614,25.496C174.614,25.152 174.45,24.9 174.122,24.74C173.802,24.572 173.178,24.392 172.25,24.2C170.65,23.912 169.482,23.46 168.746,22.844C168.01,22.22 167.642,21.364 167.642,20.276C167.642,19.508 167.854,18.832 168.278,18.248C168.71,17.664 169.302,17.212 170.054,16.892C170.806,16.564 171.67,16.4 172.646,16.4C173.606,16.4 174.51,16.532 175.358,16.796C176.214,17.052 176.946,17.412 177.554,17.876L176.45,20.336C176.111,20.068 175.74,19.842 175.346,19.664C174.931,19.47 174.497,19.321 174.05,19.22C173.619,19.11 173.175,19.054 172.73,19.052C172.146,19.052 171.674,19.152 171.314,19.352C170.954,19.544 170.774,19.816 170.774,20.168C170.774,20.52 170.938,20.78 171.266,20.948C171.594,21.116 172.206,21.3 173.102,21.5C174.774,21.852 175.962,22.32 176.666,22.904C177.378,23.48 177.734,24.292 177.734,25.34C177.734,26.148 177.514,26.852 177.074,27.452C176.642,28.052 176.034,28.52 175.25,28.856C174.474,29.184 173.566,29.348 172.526,29.348Z" style="fill:rgb(251,253,254);fill-rule:nonzero;"/>
</svg>
